<svg width="47" height="20" viewBox="0 0 47 20" fill="none" xmlns="http://www.w3.org/2000/svg">
<g filter="url(#filter0_d_106_45)">
<path d="M35.4906 8.38889C35.4906 8.38889 41.2811 8.38889 44 8.38889M44 8.38889C44 7.61111 39.3585 5.27778 39.3585 5.27778M44 8.38889C44 9.16667 39.7453 11.5 39.7453 11.5M11.5094 8.38889C11.5094 8.38889 6.32314 8.38889 3 8.38889M3 8.38889C3 8 8.0283 5.27778 8.0283 5.27778M3 8.38889C3 8.77778 8.0283 11.1111 8.0283 11.1111M23.5 15H30.7643C31.4036 15 31.8787 14.4084 31.7407 13.7842L29.0884 1.78418C28.9872 1.32611 28.5811 1 28.112 1H23.5H18.888C18.4189 1 18.0128 1.32611 17.9116 1.78418L15.2593 13.7842C15.1213 14.4084 15.5964 15 16.2357 15H23.5Z" stroke="black" stroke-width="1.5" shape-rendering="crispEdges"/>
</g>
<defs>
<filter id="filter0_d_106_45" x="0.25" y="0.25" width="46.5" height="19.5" filterUnits="userSpaceOnUse" color-interpolation-filters="sRGB">
<feFlood flood-opacity="0" result="BackgroundImageFix"/>
<feColorMatrix in="SourceAlpha" type="matrix" values="0 0 0 0 0 0 0 0 0 0 0 0 0 0 0 0 0 0 127 0" result="hardAlpha"/>
<feOffset dy="2"/>
<feGaussianBlur stdDeviation="1"/>
<feComposite in2="hardAlpha" operator="out"/>
<feColorMatrix type="matrix" values="0 0 0 0 0 0 0 0 0 0 0 0 0 0 0 0 0 0 0.25 0"/>
<feBlend mode="normal" in2="BackgroundImageFix" result="effect1_dropShadow_106_45"/>
<feBlend mode="normal" in="SourceGraphic" in2="effect1_dropShadow_106_45" result="shape"/>
</filter>
</defs>
</svg>
