<svg width="26" height="26" viewBox="0 0 26 26" fill="none" xmlns="http://www.w3.org/2000/svg">
<g filter="url(#filter0_d_170_86)">
<path d="M23 14C23 17.87 19.87 21 16 21L17.05 19.25M3 8C3 4.13 6.13 1 10 1L8.95 2.75M11.76 5.29L8.56 7.07C7.84 7.47 7.24 8.48 7.24 9.31V12.7C7.24 13.53 7.83 14.54 8.56 14.94L11.76 16.72C12.44 17.1 13.56 17.1 14.25 16.72L17.45 14.94C18.17 14.54 18.77 13.53 18.77 12.7V9.3C18.77 8.47 18.18 7.46 17.45 7.06L14.25 5.28C13.56 4.9 12.44 4.9 11.76 5.29Z" stroke="black" stroke-width="1.5" stroke-linecap="round" stroke-linejoin="round" shape-rendering="crispEdges"/>
</g>
<g filter="url(#filter1_d_170_86)">
<path d="M7.70001 8.26001L13 11.33L18.26 8.28001M13 16.77V11.32" stroke="black" stroke-width="1.5" stroke-linecap="round" stroke-linejoin="round" shape-rendering="crispEdges"/>
</g>
<defs>
<filter id="filter0_d_170_86" x="0.25" y="0.25" width="25.5" height="25.5" filterUnits="userSpaceOnUse" color-interpolation-filters="sRGB">
<feFlood flood-opacity="0" result="BackgroundImageFix"/>
<feColorMatrix in="SourceAlpha" type="matrix" values="0 0 0 0 0 0 0 0 0 0 0 0 0 0 0 0 0 0 127 0" result="hardAlpha"/>
<feOffset dy="2"/>
<feGaussianBlur stdDeviation="1"/>
<feComposite in2="hardAlpha" operator="out"/>
<feColorMatrix type="matrix" values="0 0 0 0 0 0 0 0 0 0 0 0 0 0 0 0 0 0 0.25 0"/>
<feBlend mode="normal" in2="BackgroundImageFix" result="effect1_dropShadow_170_86"/>
<feBlend mode="normal" in="SourceGraphic" in2="effect1_dropShadow_170_86" result="shape"/>
</filter>
<filter id="filter1_d_170_86" x="4.94989" y="7.50989" width="16.0602" height="14.0101" filterUnits="userSpaceOnUse" color-interpolation-filters="sRGB">
<feFlood flood-opacity="0" result="BackgroundImageFix"/>
<feColorMatrix in="SourceAlpha" type="matrix" values="0 0 0 0 0 0 0 0 0 0 0 0 0 0 0 0 0 0 127 0" result="hardAlpha"/>
<feOffset dy="2"/>
<feGaussianBlur stdDeviation="1"/>
<feComposite in2="hardAlpha" operator="out"/>
<feColorMatrix type="matrix" values="0 0 0 0 0 0 0 0 0 0 0 0 0 0 0 0 0 0 0.25 0"/>
<feBlend mode="normal" in2="BackgroundImageFix" result="effect1_dropShadow_170_86"/>
<feBlend mode="normal" in="SourceGraphic" in2="effect1_dropShadow_170_86" result="shape"/>
</filter>
</defs>
</svg>
