<svg width="22" height="22" viewBox="0 0 22 22" fill="none" xmlns="http://www.w3.org/2000/svg">
<path d="M11 14C11.7956 14 12.5587 13.6839 13.1213 13.1213C13.6839 12.5587 14 11.7956 14 11C14 10.2044 13.6839 9.44129 13.1213 8.87868C12.5587 8.31607 11.7956 8 11 8C10.2044 8 9.44129 8.31607 8.87868 8.87868C8.31607 9.44129 8 10.2044 8 11C8 11.7956 8.31607 12.5587 8.87868 13.1213C9.44129 13.6839 10.2044 14 11 14Z" stroke="black" stroke-width="1.5" stroke-miterlimit="10" stroke-linecap="round" stroke-linejoin="round"/>
<path d="M1 11.88V10.12C1 9.08 1.85 8.22 2.9 8.22C4.71 8.22 5.45 6.94 4.54 5.37C4.02 4.47 4.33 3.3 5.24 2.78L6.97 1.79C7.76 1.32 8.78 1.6 9.25 2.39L9.36 2.58C10.26 4.15 11.74 4.15 12.65 2.58L12.76 2.39C13.23 1.6 14.25 1.32 15.04 1.79L16.77 2.78C17.68 3.3 17.99 4.47 17.47 5.37C16.56 6.94 17.3 8.22 19.11 8.22C20.15 8.22 21.01 9.07 21.01 10.12V11.88C21.01 12.92 20.16 13.78 19.11 13.78C17.3 13.78 16.56 15.06 17.47 16.63C17.99 17.54 17.68 18.7 16.77 19.22L15.04 20.21C14.25 20.68 13.23 20.4 12.76 19.61L12.65 19.42C11.75 17.85 10.27 17.85 9.36 19.42L9.25 19.61C8.78 20.4 7.76 20.68 6.97 20.21L5.24 19.22C4.8041 18.969 4.48558 18.5553 4.35435 18.0698C4.22311 17.5842 4.28988 17.0664 4.54 16.63C5.45 15.06 4.71 13.78 2.9 13.78C1.85 13.78 1 12.92 1 11.88Z" stroke="black" stroke-width="1.5" stroke-miterlimit="10" stroke-linecap="round" stroke-linejoin="round"/>
</svg>
