<svg width="31" height="34" viewBox="0 0 31 34" fill="none" xmlns="http://www.w3.org/2000/svg">
<path d="M30 7.368C24.635 6.84 19.2378 6.568 13.8567 6.568C10.6667 6.568 7.47667 6.728 4.28667 7.048L1 7.368M9.86111 5.752L10.2156 3.656C10.4733 2.136 10.6667 1 13.3894 1H17.6106C20.3333 1 20.5428 2.2 20.7844 3.672L21.1389 5.752M26.5361 12.424L25.4889 28.536C25.3117 31.048 25.1667 33 20.6717 33H10.3283C5.83333 33 5.68833 31.048 5.51111 28.536L4.46389 12.424M12.8094 24.2H18.1744M11.4722 17.8H19.5278" stroke="black" stroke-width="2" stroke-linecap="round" stroke-linejoin="round"/>
</svg>
