<svg width="32" height="37" viewBox="0 0 32 37" fill="none" xmlns="http://www.w3.org/2000/svg">
<path d="M10 24.9167H6.145C2.71 24.9167 1 22.9692 1 19.0571V6.85958C1 2.9475 2.71 1 6.145 1H13C16.435 1 18.145 2.9475 18.145 6.85958" stroke="black" stroke-width="2" stroke-linecap="round" stroke-linejoin="round"/>
<path d="M20.305 23.2083H25.195M22.75 25.9929V20.4237M25.855 35.1667H19C15.565 35.1667 13.855 33.2192 13.855 29.3071V17.1096C13.855 13.1975 15.565 11.25 19 11.25H25.855C29.29 11.25 31 13.1975 31 17.1096V29.3071C31 33.2192 29.29 35.1667 25.855 35.1667Z" stroke="black" stroke-width="2" stroke-linecap="round" stroke-linejoin="round"/>
</svg>
