<svg width="20" height="22" viewBox="0 0 20 22" fill="none" xmlns="http://www.w3.org/2000/svg">
<path d="M10.09 6.75V12M19.17 7.58V14.42C19.17 15.54 18.57 16.58 17.6 17.15L11.66 20.58C10.69 21.14 9.49 21.14 8.51 20.58L2.57 17.15C2.09178 16.8727 1.69494 16.4745 1.41935 15.9953C1.14377 15.5161 0.999142 14.9728 1 14.42V7.58C1 6.46 1.6 5.42 2.57 4.85L8.51 1.42C9.48 0.86 10.68 0.86 11.66 1.42L17.6 4.85C18.57 5.42 19.17 6.45 19.17 7.58Z" stroke="black" stroke-width="1.5" stroke-linecap="round" stroke-linejoin="round"/>
<path d="M10.09 15.2V15.3" stroke="black" stroke-width="2" stroke-linecap="round" stroke-linejoin="round"/>
</svg>
